<svg xmlns="http://www.w3.org/2000/svg" width="256" height="256" viewBox="0 0 256 256">
  <defs>
    <linearGradient id="a" x1="-2.421%" x2="110.155%" y1="1.298%" y2="108.311%">
      <stop offset="0%" stop-color="#41D1FF"/>
      <stop offset="100%" stop-color="#BD34FE"/>
    </linearGradient>
    <linearGradient id="b" x1="43.376%" x2="50.316%" y1="2.242%" y2="89.03%">
      <stop offset="0%" stop-color="#FFEA83"/>
      <stop offset="8.333%" stop-color="#FFDD35"/>
      <stop offset="100%" stop-color="#FFA800"/>
    </linearGradient>
  </defs>
  <path fill="url(#a)" d="M255.803 37.954L148.96 252.731a21.277 21.277 0 0 1-37.468.1L.124 37.954a21.277 21.277 0 0 1 27.583-29.441L128 42.176l100.293-33.663a21.277 21.277 0 0 1 27.51 29.441Z"/>
  <path fill="url(#b)" d="M141.037 39.164l-4.72 44.172c-.66 6.18 5.912 10.742 11.28 7.633l5.571-3.214c5.362-3.093 11.096 2.683 8.315 8.003l-18.485 35.393c-2.781 5.32 2.953 11.096 8.315 8.003l19.838-11.451c5.363-3.093 11.096 2.683 8.315 8.003l-64.743 123.97c-5.146 9.854-18.595 7.43-20.273-3.731l-9.73-64.58c-.933-6.18 5.64-10.742 11.003-7.633l5.571 3.214c5.362 3.093 11.096-2.683 8.315-8.003l-18.485-35.393c-2.781-5.32 2.953-11.096 8.315-8.003l19.838 11.451c5.362 3.093 11.096-2.683 8.315-8.003l-40.957-78.37c-5.147-9.855 8.303-17.3 16.594-10.332l15.919 13.384c5.363 4.512 13.066.466 12.806-6.522l-2.023-54.382c-.253-6.988 8.1-10.831 12.571-5.444l10.52 12.67c4.471 5.387 12.248 2.633 12.852-4.393l4.337-50.398c.6-6.988 9.546-9.143 13.136-3.139z"/>
</svg>
