<svg width="100%" height="100%" xmlns="http://www.w3.org/2000/svg" viewBox="0 0 1900 600" preserveAspectRatio="none">
  <g fill="currentColor" fill-opacity=".025">
    <path d="M1277.67 470.187c-4.34 0-7.85 3.503-7.85 7.823v1.385c0 10.155-8.31 18.423-18.52 18.423-10.21 0-18.53-8.268-18.53-18.423v-1.385c0-4.32-3.51-7.823-7.85-7.823s-7.85 3.503-7.85 7.823v1.385c0 18.736 15.42 34.069 34.23 34.069 18.8 0 34.23-15.333 34.23-34.069v-1.385c0-4.32-3.51-7.823-7.86-7.823zM1514.86 288.74c-4.34 0-7.86 3.502-7.86 7.823v74.349c0 4.32 3.52 7.823 7.86 7.823s7.85-3.503 7.85-7.823v-74.349c0-4.321-3.51-7.823-7.85-7.823zM1537.45 13.914c-4.34 0-7.86 3.503-7.86 7.823v49.822c0 4.32 3.52 7.823 7.86 7.823s7.85-3.503 7.85-7.823V21.737c0-4.32-3.51-7.823-7.85-7.823zM1305.8 456.974c-4.34 0-7.86 3.502-7.86 7.823v100.835c0 4.321 3.52 7.824 7.86 7.824s7.85-3.503 7.85-7.824V464.797c0-4.321-3.51-7.823-7.85-7.823zM1403.48 402.051c-4.34 0-7.85 3.503-7.85 7.823v55.534c0 4.321 3.51 7.823 7.85 7.823s7.86-3.502 7.86-7.823v-55.534c0-4.32-3.52-7.823-7.86-7.823zM1545.98 421.284c-4.34 0-7.85 3.503-7.85 7.823v78.143c0 4.321 3.51 7.824 7.85 7.824s7.86-3.503 7.86-7.824v-78.143c0-4.32-3.52-7.823-7.86-7.823zM1366.17 0c-4.34 0-7.85 3.503-7.85 7.823v74.56c0 4.32 3.51 7.823 7.85 7.823s7.86-3.503 7.86-7.823V7.823c0-4.32-3.52-7.823-7.86-7.823zM1822.46 36.376c-4.34 0-7.86 3.502-7.86 7.823V111.4c0 4.321 3.52 7.824 7.86 7.824s7.85-3.503 7.85-7.824V44.199c0-4.321-3.51-7.823-7.85-7.823zM1727.81 310.231c-4.34 0-7.85 3.502-7.85 7.823v100.835c0 4.32 3.51 7.823 7.85 7.823s7.86-3.503 7.86-7.823V318.054c0-4.321-3.52-7.823-7.86-7.823zM1614.9 311.666c-4.34 0-7.86 3.502-7.86 7.823v66.366c0 4.321 3.52 7.824 7.86 7.824s7.85-3.503 7.85-7.824v-66.366c0-4.321-3.51-7.823-7.85-7.823zM1691.31 465.736c-4.34 0-7.85 3.502-7.85 7.823v62.46c0 4.32 3.51 7.823 7.85 7.823s7.86-3.503 7.86-7.823v-62.46c0-4.321-3.52-7.823-7.86-7.823zM1472.03 0c-4.33 0-7.85 3.503-7.85 7.823v62.461c0 4.321 3.52 7.824 7.85 7.824s7.86-3.503 7.86-7.824V7.823C1479.89 3.503 1476.36 0 1472.03 0zM1307.75 304.538c-4.34 0-7.85 3.503-7.85 7.823v46.101c0 4.32 3.51 7.823 7.85 7.823s7.86-3.503 7.86-7.823v-46.101c0-4.32-3.52-7.823-7.86-7.823zM1406.84 521.849c-4.34 0-7.86 3.502-7.86 7.823v62.46c0 4.321 3.52 7.824 7.86 7.824s7.85-3.503 7.85-7.824v-62.46c0-4.321-3.51-7.823-7.85-7.823zM1475.25 464.797c-4.34 0-7.86 3.502-7.86 7.823v62.46c0 4.321 3.52 7.824 7.86 7.824s7.85-3.503 7.85-7.824v-62.46c0-4.321-3.51-7.823-7.85-7.823zM1340.54 397.683c-4.34 0-7.86 3.502-7.86 7.823v55.534c0 4.32 3.52 7.823 7.86 7.823s7.85-3.503 7.85-7.823v-55.534c0-4.321-3.51-7.823-7.85-7.823zM1440.09 152.01c-4.34 0-7.86 3.502-7.86 7.823v74.349c0 4.32 3.52 7.823 7.86 7.823s7.85-3.503 7.85-7.823v-74.349c0-4.321-3.51-7.823-7.85-7.823zM1574.65 0c-4.34 0-7.86 3.503-7.86 7.823v62.461c0 4.321 3.52 7.824 7.86 7.824s7.85-3.503 7.85-7.824V7.823c0-4.32-3.51-7.823-7.85-7.823zM1726.04 153.292c-4.34 0-7.85 3.503-7.85 7.823v62.461c0 4.321 3.51 7.824 7.85 7.824s7.86-3.503 7.86-7.824v-62.461c0-4.32-3.52-7.823-7.86-7.823zM1614.9 0c-4.34 0-7.86 3.503-7.86 7.823V54.08c0 4.32 3.52 7.823 7.86 7.823s7.85-3.503 7.85-7.823V7.823c0-4.32-3.51-7.823-7.85-7.823zM1822.46 156.368c-4.34 0-7.86 3.502-7.86 7.823v100.835c0 4.32 3.52 7.823 7.86 7.823s7.85-3.503 7.85-7.823V164.191c0-4.321-3.51-7.823-7.85-7.823zM1307.75 145.703c-4.34 0-7.85 3.503-7.85 7.823v55.534c0 4.321 3.51 7.824 7.85 7.824s7.86-3.503 7.86-7.824v-55.534c0-4.32-3.52-7.823-7.86-7.823zM1406.84 0c-4.34 0-7.86 3.503-7.86 7.823V85.95c0 4.321 3.52 7.823 7.86 7.823s7.85-3.502 7.85-7.823V7.823c0-4.32-3.51-7.823-7.85-7.823zM1475.25 226.435c-4.34 0-7.86 3.503-7.86 7.823v74.349c0 4.321 3.52 7.823 7.86 7.823s7.85-3.502 7.85-7.823v-74.349c0-4.32-3.51-7.822-7.85-7.822zM1340.54 0c-4.34 0-7.86 3.503-7.86 7.823v111.38c0 4.321 3.52 7.823 7.86 7.823s7.85-3.502 7.85-7.823V7.823c0-4.32-3.51-7.823-7.85-7.823zM1440.09 314.947c-4.34 0-7.86 3.503-7.86 7.823v62.46c0 4.321 3.52 7.824 7.86 7.824s7.85-3.503 7.85-7.824v-62.46c0-4.32-3.51-7.823-7.85-7.823zM1574.65 156.368c-4.34 0-7.86 3.502-7.86 7.823v100.835c0 4.32 3.52 7.823 7.86 7.823s7.85-3.503 7.85-7.823V164.191c0-4.321-3.51-7.823-7.85-7.823zM1726.04 0c-4.34 0-7.85 3.503-7.85 7.823V74.56c0 4.32 3.51 7.823 7.85 7.823s7.86-3.503 7.86-7.823V7.823c0-4.32-3.52-7.823-7.86-7.823zM1614.9 164.191c-4.34 0-7.86 3.502-7.86 7.823v74.349c0 4.32 3.52 7.823 7.86 7.823s7.85-3.503 7.85-7.823v-74.349c0-4.321-3.51-7.823-7.85-7.823zM1307.75 0c-4.34 0-7.85 3.503-7.85 7.823v78.143c0 4.32 3.51 7.823 7.85 7.823s7.86-3.503 7.86-7.823V7.823c0-4.32-3.52-7.823-7.86-7.823zM1406.84 164.191c-4.34 0-7.86 3.502-7.86 7.823v74.349c0 4.32 3.52 7.823 7.86 7.823s7.85-3.503 7.85-7.823v-74.349c0-4.321-3.51-7.823-7.85-7.823zM1475.25 111.4c-4.34 0-7.86 3.502-7.86 7.823V212.24c0 4.32 3.52 7.823 7.86 7.823s7.85-3.503 7.85-7.823v-93.017c0-4.321-3.51-7.823-7.85-7.823zM1340.54 164.191c-4.34 0-7.86 3.502-7.86 7.823v89.214c0 4.32 3.52 7.823 7.86 7.823s7.85-3.503 7.85-7.823v-89.214c0-4.321-3.51-7.823-7.85-7.823zM1574.65 311.666c-4.34 0-7.86 3.502-7.86 7.823v78.144c0 4.32 3.52 7.823 7.86 7.823s7.85-3.503 7.85-7.823v-78.144c0-4.321-3.51-7.823-7.85-7.823zM1307.75 365.736c-4.34 0-7.85 3.502-7.85 7.823v74.349c0 4.321 3.51 7.823 7.85 7.823s7.86-3.502 7.86-7.823v-74.349c0-4.321-3.52-7.823-7.86-7.823zM1406.84 314.947c-4.34 0-7.86 3.503-7.86 7.823v100.835c0 4.321 3.52 7.824 7.86 7.824s7.85-3.503 7.85-7.824V322.77c0-4.32-3.51-7.823-7.85-7.823zM1545.98 214.393c-4.34 0-7.85 3.503-7.85 7.823v89.214c0 4.32 3.51 7.823 7.85 7.823s7.86-3.503 7.86-7.823v-89.214c0-4.32-3.52-7.823-7.86-7.823zM1440.09 464.797c-4.34 0-7.86 3.502-7.86 7.823v100.835c0 4.321 3.52 7.824 7.86 7.824s7.85-3.503 7.85-7.824V472.62c0-4.321-3.51-7.823-7.85-7.823zM1340.54 314.947c-4.34 0-7.86 3.503-7.86 7.823v30.822c0 4.321 3.52 7.823 7.86 7.823s7.85-3.502 7.85-7.823V322.77c0-4.32-3.51-7.823-7.85-7.823zM1574.65 464.797c-4.34 0-7.86 3.502-7.86 7.823v74.349c0 4.321 3.52 7.823 7.86 7.823s7.85-3.503 7.85-7.823v-74.349c0-4.321-3.51-7.823-7.85-7.823zM1822.46 311.666c-4.34 0-7.86 3.502-7.86 7.823v100.835c0 4.32 3.52 7.823 7.86 7.823s7.85-3.503 7.85-7.823V319.489c0-4.321-3.51-7.823-7.85-7.823zM1726.04 472.62c-4.34 0-7.85 3.503-7.85 7.823v74.349c0 4.321 3.51 7.823 7.85 7.823s7.86-3.502 7.86-7.823v-74.349c0-4.32-3.52-7.823-7.86-7.823zM1614.9 465.736c-4.34 0-7.86 3.502-7.86 7.823v82.339c0 4.321 3.52 7.824 7.86 7.824s7.85-3.503 7.85-7.824v-82.339c0-4.321-3.51-7.823-7.85-7.823zM1307.75 528.911c-4.34 0-7.85 3.502-7.85 7.823v55.534c0 4.321 3.51 7.824 7.85 7.824s7.86-3.503 7.86-7.824v-55.534c0-4.321-3.52-7.823-7.86-7.823zM1691.31 164.191c-4.34 0-7.85 3.502-7.85 7.823v100.835c0 4.32 3.51 7.823 7.85 7.823s7.86-3.503 7.86-7.823V172.014c0-4.321-3.52-7.823-7.86-7.823zM1691.31 0c-4.34 0-7.85 3.503-7.85 7.823v100.835c0 4.321 3.51 7.823 7.85 7.823s7.86-3.502 7.86-7.823V7.823c0-4.32-3.52-7.823-7.86-7.823zM1691.31 314.947c-4.34 0-7.85 3.503-7.85 7.823v100.835c0 4.321 3.51 7.824 7.85 7.824s7.86-3.503 7.86-7.824V322.77c0-4.32-3.52-7.823-7.86-7.823zM1287.35 44.814c0-4.32-3.51-7.823-7.85-7.823-11.83 0-21.46 9.492-21.46 21.156v10.5c0 4.32 3.52 7.823 7.86 7.823s7.85-3.503 7.85-7.823v-10.5c0-3.044 2.5-5.511 5.75-5.511 4.34 0 7.85 3.503 7.85 7.823V419.01c0 4.32 3.51 7.823 7.85 7.823s7.86-3.503 7.86-7.823V44.814zm-44.4 21.156c0-20.316 16.71-36.802 37.24-36.802 20.52 0 37.24 16.486 37.24 36.802V419.01c0 20.317-16.72 36.803-37.24 36.803-20.53 0-37.24-16.486-37.24-36.803V65.97zm236.43 125.753c0-4.321-3.52-7.823-7.86-7.823s-7.85 3.502-7.85 7.823v46.33c0 4.321 3.51 7.824 7.85 7.824s7.86-3.503 7.86-7.824v-46.33zm163.63-22.181c4.34 0 7.86 3.502 7.86 7.823v100.835c0 4.32 3.52 7.823 7.86 7.823s7.85-3.503 7.85-7.823V177.365c0-4.321-3.51-7.823-7.85-7.823zm-171.49 146.994c0 4.32 3.52 7.823 7.86 7.823s7.85-3.503 7.85-7.823v-23.878c0-4.32-3.51-7.823-7.85-7.823s-7.86 3.503-7.86 7.823v23.878zM1691.75 0c4.34 0 7.85 3.503 7.85 7.823v78.143c0 17.847-14.7 32.127-32.6 32.127-17.9 0-32.6-14.28-32.6-32.127s14.7-32.127 32.6-32.127c4.34 0 7.86 3.503 7.86 7.823s-3.52 7.823-7.86 7.823c-9.43 0-16.89 7.483-16.89 16.481 0 8.999 7.46 16.481 16.89 16.481 9.44 0 16.9-7.482 16.9-16.48V7.822c0-4.32 3.51-7.823 7.85-7.823zM1669.5 514.787c-7.89 0-14.39 6.44-14.39 14.515 0 4.321-3.52 7.824-7.86 7.824-4.33 0-7.85-3.503-7.85-7.824 0-16.599 13.42-30.161 30.1-30.161 16.69 0 30.1 13.562 30.1 30.161 0 16.599-13.41 30.162-30.1 30.162h-35.36c-4.34 0-7.86-3.503-7.86-7.823 0-4.321 3.52-7.824 7.86-7.824h35.36c7.89 0 14.4-6.439 14.4-14.515 0-8.075-6.51-14.515-14.4-14.515zM1692.52 156.367c4.34 0 7.86 3.502 7.86 7.823v82.339c0 7.811 6.4 14.211 14.38 14.211s14.38-6.4 14.38-14.211c0-7.812-6.4-14.212-14.38-14.212-4.34 0-7.86-3.502-7.86-7.823 0-4.32 3.52-7.823 7.86-7.823 16.58 0 30.08 13.33 30.08 29.858 0 16.527-13.5 29.857-30.08 29.857s-30.09-13.33-30.09-29.857V164.19c0-4.321 3.52-7.823 7.85-7.823zM1339.89 151.745c4.34 0 7.86 3.503 7.86 7.823v89.104c0 16.48-13.59 29.64-30.09 29.64-16.51 0-30.09-13.16-30.09-29.64s13.58-29.64 30.09-29.64c4.34 0 7.85 3.503 7.85 7.823 0 4.321-3.51 7.823-7.85 7.823-8.05 0-14.38 6.375-14.38 13.994 0 7.618 6.33 13.993 14.38 13.993s14.38-6.375 14.38-13.993v-89.104c0-4.32 3.51-7.823 7.85-7.823zM1473.55 159.568c0-26.11 20.95-47.492 47.05-47.492 26.1 0 47.04 21.382 47.04 47.492 0 4.321-3.52 7.823-7.85 7.823-4.34 0-7.86-3.502-7.86-7.823 0-17.707-14.15-31.846-31.33-31.846-17.19 0-31.34 14.139-31.34 31.846 0 17.708 14.15 31.846 31.34 31.846h102.71c4.34 0 7.86 3.503 7.86 7.824 0 4.32-3.52 7.823-7.86 7.823H1520.6c-26.1 0-47.05-21.383-47.05-47.493zM1762.39 208.481c0-4.321 3.51-7.823 7.85-7.823h102.72c26.1 0 47.04 21.383 47.04 47.492 0 26.11-20.94 47.493-47.04 47.493-4.34 0-7.86-3.503-7.86-7.823 0-4.321 3.52-7.823 7.86-7.823 17.19 0 31.33-14.139 31.33-31.847 0-17.707-14.14-31.846-31.33-31.846h-102.72c-4.34 0-7.85-3.502-7.85-7.823zM1758.43 46.072c-15.96 0-29.05 13.057-29.05 29.343s13.09 29.343 29.05 29.343h37.93c15.97 0 29.05-13.057 29.05-29.343s-13.08-29.343-29.05-29.343h-37.93zm-44.76 29.343c0-24.767 19.96-44.989 44.76-44.989h37.93c24.8 0 44.76 20.223 44.76 44.99 0 24.766-19.96 44.988-44.76 44.988h-37.93c-24.8 0-44.76-20.222-44.76-44.989zM1396.54 240.183c-8.38 0-15.16 6.752-15.16 15.054v65.166c0 8.301 6.78 15.054 15.16 15.054 8.38 0 15.15-6.753 15.15-15.054v-65.166c0-8.302-6.77-15.054-15.15-15.054zm0 110.92c-17.03 0-30.86-13.733-30.86-30.7v-65.166c0-16.968 13.83-30.701 30.86-30.701s30.86 13.733 30.86 30.701v65.166c0 16.967-13.83 30.7-30.86 30.7zM1631.63 269.839c-5.65 0-10.13 4.511-10.13 9.957v34.406c0 4.321-3.52 7.823-7.85 7.823-4.34 0-7.86-3.502-7.86-7.823v-34.406c0-14.194 11.62-25.604 25.84-25.604 14.21 0 25.83 11.41 25.83 25.604v68.812c0 14.194-11.62 25.603-25.83 25.603-14.22 0-25.84-11.409-25.84-25.603v-8.313c0-4.32 3.52-7.823 7.86-7.823 4.33 0 7.85 3.503 7.85 7.823v8.313c0 5.446 4.48 9.957 10.13 9.957 5.64 0 10.12-4.511 10.12-9.957v-68.812c0-5.446-4.48-9.957-10.12-9.957z" />
    <path d="M1615.77 16.031c-12.87 0-23.27 10.361-23.27 23.097v94.142c0 12.736 10.4 23.097 23.27 23.097 12.88 0 23.27-10.361 23.27-23.097v-2.999c0-4.321 3.52-7.823 7.86-7.823s7.85 3.502 7.85 7.823v2.999c0 21.417-17.47 38.743-38.98 38.743-21.51 0-38.98-17.326-38.98-38.743V39.128c0-21.417 17.47-38.743 38.98-38.743 21.51 0 38.98 17.326 38.98 38.743v.923c0 4.32-3.51 7.823-7.85 7.823s-7.86-3.503-7.86-7.823v-.923c0-12.736-10.39-23.097-23.27-23.097zM1287.57 398.355c0-17.501 14.23-31.702 31.81-31.702h1.86c4.33 0 7.85 3.503 7.85 7.823 0 4.321-3.52 7.823-7.85 7.823h-1.86c-8.89 0-16.1 7.181-16.1 16.056s7.21 16.056 16.1 16.056h55.33c8.89 0 16.1-7.181 16.1-16.056s-7.21-16.056-16.1-16.056h-1.86c-4.33 0-7.85-3.502-7.85-7.823 0-4.32 3.52-7.823 7.85-7.823h1.86c17.58 0 31.81 14.201 31.81 31.702s-14.23 31.702-31.81 31.702h-55.33c-17.58 0-31.81-14.201-31.81-31.702zM1583.87 254.192c4.34 0 7.86 3.503 7.86 7.823v89.213c0 22.279 18.31 40.459 41.06 40.459 22.74 0 41.05-18.18 41.05-40.459V330.15c0-4.32 3.52-7.823 7.86-7.823s7.85 3.503 7.85 7.823v21.078c0 31.053-25.48 56.106-56.76 56.106-31.29 0-56.77-25.053-56.77-56.106v-89.213c0-4.32 3.52-7.823 7.85-7.823zM1477.81 412.99c0-4.32 3.51-7.823 7.85-7.823h80.35c34.96 0 63.22 28.374 63.22 63.283 0 34.907-28.26 63.284-63.22 63.284h-24.17c-4.34 0-7.86-3.503-7.86-7.823 0-4.321 3.52-7.824 7.86-7.824h24.17c26.2 0 47.52-21.288 47.52-47.637 0-26.35-21.32-47.637-47.52-47.637h-80.35c-4.34 0-7.85-3.502-7.85-7.823zM1501.06 239.413c-8.42 0-15.28 6.82-15.28 15.285 0 8.464 6.86 15.285 15.28 15.285h19.01c4.34 0 7.86 3.503 7.86 7.823 0 4.321-3.52 7.823-7.86 7.823h-19.01c-17.14 0-30.99-13.871-30.99-30.931 0-17.06 13.85-30.932 30.99-30.932h38.03c17.14 0 30.98 13.872 30.98 30.932v2.053c0 15.926-12.92 28.878-28.92 28.878-4.34 0-7.86-3.502-7.86-7.823 0-4.32 3.52-7.823 7.86-7.823 7.27 0 13.22-5.901 13.22-13.232v-2.053c0-8.465-6.87-15.285-15.28-15.285h-38.03zM1658.76 164.768c0-18.458 15.78-32.665 34.27-32.665h43.45c18.49 0 34.27 14.207 34.27 32.665s-15.78 32.664-34.27 32.664h-21.72c-4.34 0-7.86-3.502-7.86-7.823 0-4.32 3.52-7.823 7.86-7.823h21.72c10.68 0 18.56-8.038 18.56-17.018 0-8.981-7.88-17.019-18.56-17.019h-43.45c-10.68 0-18.56 8.038-18.56 17.019 0 4.32-3.51 7.823-7.85 7.823s-7.86-3.503-7.86-7.823zM1434.89 145.703c0-37.258 30.2-67.52 67.52-67.52h52.08c4.33 0 7.85 3.503 7.85 7.823 0 4.321-3.52 7.824-7.85 7.824h-52.08c-28.58 0-51.81 23.192-51.81 51.873 0 4.321-3.52 7.823-7.86 7.823-4.33 0-7.85-3.502-7.85-7.823zM1831.72 343.545c4.34 0 7.85 3.502 7.85 7.823v143.241c0 7.766 6.39 14.161 14.38 14.161 8 0 14.38-6.395 14.38-14.161 0-7.765-6.38-14.16-14.38-14.16-4.33 0-7.85-3.503-7.85-7.824 0-4.32 3.52-7.823 7.85-7.823 16.57 0 30.09 13.293 30.09 29.807s-13.52 29.807-30.09 29.807c-16.56 0-30.08-13.293-30.08-29.807V351.368c0-4.321 3.51-7.823 7.85-7.823zM1727.96 453.935c-17.92 0-32.61 14.68-32.61 33.002 0 4.321-3.52 7.823-7.85 7.823-4.34 0-7.86-3.502-7.86-7.823 0-26.771 21.54-48.648 48.32-48.648h71.28c4.34 0 7.86 3.503 7.86 7.823 0 4.321-3.52 7.823-7.86 7.823h-71.28zM1666.62 177.549c4.34 0 7.85 3.503 7.85 7.824 0 29.822-24.2 54.039-54.11 54.039h-38.03c-4.34 0-7.86-3.502-7.86-7.823 0-4.32 3.52-7.823 7.86-7.823h38.03c21.19 0 38.4-17.166 38.4-38.393 0-4.321 3.52-7.824 7.86-7.824zM1804.27 344.315c4.34 0 7.85 3.503 7.85 7.823v20.703c0 25.221-20.53 45.662-45.86 45.662h-29.66c-4.33 0-7.85-3.503-7.85-7.824 0-4.32 3.52-7.823 7.85-7.823h29.66c16.66 0 30.15-13.441 30.15-30.015v-20.703c0-4.32 3.52-7.823 7.86-7.823zM1793.32 291.671c0-27.863 22.49-50.573 50.38-50.573h32.49c4.33 0 7.85 3.502 7.85 7.823 0 4.32-3.52 7.823-7.85 7.823h-32.49c-19.08 0-34.67 15.57-34.67 34.927 0 4.321-3.52 7.823-7.85 7.823-4.34 0-7.86-3.502-7.86-7.823zM1422.59 473.401c.89 4.23-1.84 8.374-6.08 9.255-18.34 3.807-30.87 18.059-30.87 33.891v35.093c0 4.321-3.52 7.824-7.86 7.824-4.33 0-7.85-3.503-7.85-7.824v-35.093c0-24.579 19.15-44.18 43.37-49.208 4.25-.882 8.41 1.833 9.29 6.062zM1310.7 125.556c4.34 0 7.85 3.502 7.85 7.823v70.865c0 4.321-3.51 7.824-7.85 7.824s-7.86-3.503-7.86-7.824v-70.865c0-4.321 3.52-7.823 7.86-7.823zM1454.22 551.448c0-4.321 3.52-7.823 7.86-7.823h146.54c4.34 0 7.85 3.502 7.85 7.823 0 4.321-3.51 7.823-7.85 7.823h-146.54c-4.34 0-7.86-3.502-7.86-7.823zM1714.37 288.47c4.34 0 7.85 3.502 7.85 7.823v58.541c0 4.321-3.51 7.823-7.85 7.823s-7.85-3.502-7.85-7.823v-58.541c0-4.321 3.51-7.823 7.85-7.823zM1654.83 447.532c4.33 0 7.85 3.503 7.85 7.824v23.878c0 4.321-3.52 7.823-7.85 7.823-4.34 0-7.86-3.502-7.86-7.823v-23.878c0-4.321 3.52-7.824 7.86-7.824z" />
    <path d="M1770.24 226.077c4.34 0 7.86 3.503 7.86 7.823v54.817c0 13.007-10.66 23.435-23.66 23.435-4.45 0-7.95 3.547-7.95 7.795v3.239c0 4.248 3.51 7.795 7.95 7.795 13.01 0 23.66 10.438 23.66 23.441v3.587c0 14.983-12.28 27.027-27.29 27.027H1726c-4.34 0-7.85-3.503-7.85-7.823 0-4.321 3.51-7.823 7.85-7.823h24.81c6.45 0 11.58-5.153 11.58-11.381v-3.587c0-4.248-3.5-7.795-7.95-7.795-13.01 0-23.65-10.438-23.65-23.441v-3.239c0-13.003 10.64-23.441 23.65-23.441 4.45 0 7.95-3.544 7.95-7.789V233.9c0-4.32 3.51-7.823 7.85-7.823zm-58.79 155.958c4.34 0 7.86 3.502 7.86 7.823 0 25.614-20.87 46.361-46.59 46.361h-10.36c-4.33 0-7.85-3.503-7.85-7.823 0-4.321 3.52-7.823 7.85-7.823h10.36c17.06 0 30.88-13.761 30.88-30.715 0-4.321 3.52-7.823 7.85-7.823zM1778.24 159.338c0-15.276 12.46-27.62 27.79-27.62 15.32 0 27.78 12.345 27.78 27.62v6.471c0 6.674 5.46 12.126 12.24 12.126 6.77 0 12.23-5.451 12.23-12.126v-7.812c0-4.32 3.52-7.823 7.85-7.823 4.34 0 7.86 3.503 7.86 7.823v7.812c0 15.359-12.54 27.772-27.94 27.772-15.41 0-27.94-12.411-27.94-27.772v-6.471c0-6.592-5.39-11.974-12.08-11.974s-12.08 5.383-12.08 11.974v7.964c0 4.32-3.52 7.823-7.86 7.823-4.33 0-7.85-3.503-7.85-7.823v-7.964zM1742.79 482.821c-11.25 0-20.37 9.084-20.37 20.279v20.438c0 11.195 9.12 20.279 20.37 20.279 11.25 0 20.37-9.084 20.37-20.279V503.1c0-11.195-9.12-20.279-20.37-20.279zm0 76.643c-19.92 0-36.08-16.083-36.08-35.926V503.1c0-19.843 16.16-35.926 36.08-35.926 19.92 0 36.08 16.083 36.08 35.926v20.438c0 19.843-16.16 35.926-36.08 35.926z" />
  </g>
</svg>
